<?xml version="1.0" encoding="UTF-8"?>
<svg id="a" xmlns="http://www.w3.org/2000/svg" viewBox="0 0 126.146 39.051" height="64pt">
<style>
*{ fill: #888; }
@media (prefers-color-scheme: light) { *{ fill: #021006; } }
@media (prefers-color-scheme: dark) { *{ fill: #636b64; } }
</style>
<path d="m0,31.04l.534-2.973c.278-1.546,1.623-2.67,3.193-2.67h24.887c2.028,0,2.866-.352,3.131-1.852l.794-4.452c0-.133.044-.309.044-.441,0-1.059-.794-1.456-2.557-1.456H11.463c-6.349,0-8.862-2.293-8.862-5.908,0-.485.089-1.058.177-1.631l.353-2.117C3.879,3.042,7.275,0,14.505,0h26.852l-.505,2.91c-.27,1.554-1.618,2.689-3.196,2.689H13.535c-1.896,0-2.954.485-3.219,1.896l-.397,2.204c-.044.132-.044.309-.044.441,0,1.014.793,1.455,2.601,1.455h18.563c6.349,0,8.862,2.336,8.862,5.908,0,.529-.044,1.058-.132,1.631l-.794,4.322c-.838,4.497-4.1,7.583-11.376,7.583H0Z" />
<path d="m78.395.006h-21.026c-7.233,0-10.5,3.033-11.291,7.493l-2.826,16.049c-.078.57-.169,1.102-.169,1.633,0,3.526,2.515,5.859,8.815,5.859h21.026c7.234,0,10.5-3.046,11.291-7.493l2.826-16.049c.091-.57.13-1.102.13-1.633C87.172,2.339,84.696.006,78.395.006Zm-25.084,7.402c.22-1.231,1.283-1.815,3.085-1.815h21.026c1.906,0,2.476.583,2.476,1.815l-.285,1.608-27.78,6.767,1.478-8.374Zm23.723,16.178c-.22,1.283-1.283,1.815-3.085,1.815h-21.039c-1.633,0-2.515-.441-2.515-1.465,0-.078,0-.22.052-.35l.298-1.685,27.78-6.767-1.491,8.452Z" />
<path d="m125.219,6.332l-28.04,32.719H5.373C2.405,39.051.006,36.653.006,33.684h83.458l9.709-11.369L89.414.006h4.3c1.59,0,2.945,1.153,3.2,2.722l2.079,12.795L112.294.006h8.348l-28.869,33.679h1.698L122.302.006c3.28,0,5.043,3.837,2.917,6.326Z" />
</svg>